<mxfile host="app.diagrams.net" agent="Mozilla/5.0 (Windows NT 10.0; Win64; x64) AppleWebKit/537.36 (KHTML, like Gecko) Chrome/134.0.0.0 Safari/537.36" version="26.1.3">
  <diagram name="Page-1" id="hMF1Qu58T-P4NQbvckO5">
    <mxGraphModel dx="1032" dy="501" grid="1" gridSize="10" guides="1" tooltips="1" connect="1" arrows="1" fold="1" page="1" pageScale="1" pageWidth="1654" pageHeight="1169" math="0" shadow="0">
      <root>
        <mxCell id="0" />
        <mxCell id="1" parent="0" />
        <mxCell id="JYsvqv3m3Tlzd7t_K05r-17" style="edgeStyle=orthogonalEdgeStyle;rounded=0;orthogonalLoop=1;jettySize=auto;html=1;exitX=0.5;exitY=1;exitDx=0;exitDy=0;" edge="1" parent="1" source="JYsvqv3m3Tlzd7t_K05r-1" target="JYsvqv3m3Tlzd7t_K05r-2">
          <mxGeometry relative="1" as="geometry" />
        </mxCell>
        <mxCell id="JYsvqv3m3Tlzd7t_K05r-1" value="&lt;font style=&quot;font-size: 18px;&quot;&gt;&lt;b&gt;Watershed Delineation&lt;/b&gt;&lt;/font&gt;" style="rounded=1;whiteSpace=wrap;html=1;rotation=-90;fillColor=#f5f5f5;fontColor=#333333;strokeColor=#666666;" vertex="1" parent="1">
          <mxGeometry x="12.51" y="355.63" width="277.49" height="50" as="geometry" />
        </mxCell>
        <mxCell id="JYsvqv3m3Tlzd7t_K05r-18" style="edgeStyle=orthogonalEdgeStyle;rounded=0;orthogonalLoop=1;jettySize=auto;html=1;exitX=0.5;exitY=1;exitDx=0;exitDy=0;" edge="1" parent="1" source="JYsvqv3m3Tlzd7t_K05r-2" target="JYsvqv3m3Tlzd7t_K05r-4">
          <mxGeometry relative="1" as="geometry" />
        </mxCell>
        <mxCell id="JYsvqv3m3Tlzd7t_K05r-2" value="&lt;font style=&quot;font-size: 18px;&quot;&gt;&lt;b&gt;Grid Sampling Technique&lt;/b&gt;&lt;/font&gt;" style="rounded=1;whiteSpace=wrap;html=1;rotation=-90;fillColor=#f5f5f5;fontColor=#333333;strokeColor=#666666;" vertex="1" parent="1">
          <mxGeometry x="110" y="355" width="282.19" height="50" as="geometry" />
        </mxCell>
        <mxCell id="JYsvqv3m3Tlzd7t_K05r-3" value="&lt;font style=&quot;font-size: 18px;&quot;&gt;&lt;b&gt;Undisturbed Soil Sample Collection&lt;/b&gt;&lt;/font&gt;" style="rounded=1;whiteSpace=wrap;html=1;rotation=-90;fillColor=#f5f5f5;fontColor=#333333;strokeColor=#666666;" vertex="1" parent="1">
          <mxGeometry x="290" y="417.5" width="128.75" height="90" as="geometry" />
        </mxCell>
        <mxCell id="JYsvqv3m3Tlzd7t_K05r-23" style="edgeStyle=orthogonalEdgeStyle;rounded=0;orthogonalLoop=1;jettySize=auto;html=1;exitX=0.75;exitY=1;exitDx=0;exitDy=0;entryX=0;entryY=0.5;entryDx=0;entryDy=0;" edge="1" parent="1" source="JYsvqv3m3Tlzd7t_K05r-4" target="JYsvqv3m3Tlzd7t_K05r-8">
          <mxGeometry relative="1" as="geometry" />
        </mxCell>
        <mxCell id="JYsvqv3m3Tlzd7t_K05r-24" style="edgeStyle=orthogonalEdgeStyle;rounded=0;orthogonalLoop=1;jettySize=auto;html=1;exitX=0.25;exitY=1;exitDx=0;exitDy=0;entryX=0;entryY=0.5;entryDx=0;entryDy=0;" edge="1" parent="1" source="JYsvqv3m3Tlzd7t_K05r-4" target="JYsvqv3m3Tlzd7t_K05r-9">
          <mxGeometry relative="1" as="geometry" />
        </mxCell>
        <mxCell id="JYsvqv3m3Tlzd7t_K05r-4" value="&lt;font style=&quot;font-size: 18px;&quot;&gt;&lt;b&gt;Disturbed Soil Sample Collection&lt;/b&gt;&lt;/font&gt;" style="rounded=1;whiteSpace=wrap;html=1;rotation=-90;fillColor=#f5f5f5;fontColor=#333333;strokeColor=#666666;" vertex="1" parent="1">
          <mxGeometry x="233.75" y="205" width="225" height="67.5" as="geometry" />
        </mxCell>
        <mxCell id="JYsvqv3m3Tlzd7t_K05r-27" style="edgeStyle=orthogonalEdgeStyle;rounded=0;orthogonalLoop=1;jettySize=auto;html=1;exitX=1;exitY=0.5;exitDx=0;exitDy=0;entryX=1;entryY=0.5;entryDx=0;entryDy=0;" edge="1" parent="1" source="JYsvqv3m3Tlzd7t_K05r-8" target="JYsvqv3m3Tlzd7t_K05r-11">
          <mxGeometry relative="1" as="geometry" />
        </mxCell>
        <mxCell id="JYsvqv3m3Tlzd7t_K05r-8" value="&lt;span style=&quot;font-size: 18px;&quot;&gt;&lt;b&gt;Soil Texture&lt;/b&gt;&lt;/span&gt;" style="rounded=1;whiteSpace=wrap;html=1;fillColor=#f5f5f5;fontColor=#333333;strokeColor=#666666;" vertex="1" parent="1">
          <mxGeometry x="440" y="127.5" width="120" height="55" as="geometry" />
        </mxCell>
        <mxCell id="JYsvqv3m3Tlzd7t_K05r-28" style="edgeStyle=orthogonalEdgeStyle;rounded=0;orthogonalLoop=1;jettySize=auto;html=1;exitX=1;exitY=0.5;exitDx=0;exitDy=0;entryX=0.5;entryY=0;entryDx=0;entryDy=0;" edge="1" parent="1" source="JYsvqv3m3Tlzd7t_K05r-9" target="JYsvqv3m3Tlzd7t_K05r-11">
          <mxGeometry relative="1" as="geometry" />
        </mxCell>
        <mxCell id="JYsvqv3m3Tlzd7t_K05r-9" value="&lt;span style=&quot;font-size: 18px;&quot;&gt;&lt;b&gt;Soil Organic Carbon&lt;/b&gt;&lt;/span&gt;" style="rounded=1;whiteSpace=wrap;html=1;fillColor=#f5f5f5;fontColor=#333333;strokeColor=#666666;" vertex="1" parent="1">
          <mxGeometry x="440" y="305.63" width="120" height="60" as="geometry" />
        </mxCell>
        <mxCell id="JYsvqv3m3Tlzd7t_K05r-29" style="edgeStyle=orthogonalEdgeStyle;rounded=0;orthogonalLoop=1;jettySize=auto;html=1;exitX=1;exitY=0.75;exitDx=0;exitDy=0;entryX=0;entryY=0.25;entryDx=0;entryDy=0;" edge="1" parent="1" source="JYsvqv3m3Tlzd7t_K05r-10" target="JYsvqv3m3Tlzd7t_K05r-11">
          <mxGeometry relative="1" as="geometry" />
        </mxCell>
        <mxCell id="JYsvqv3m3Tlzd7t_K05r-10" value="&lt;span style=&quot;font-size: 18px;&quot;&gt;&lt;b&gt;Soil Permeability&lt;/b&gt;&lt;/span&gt;" style="rounded=1;whiteSpace=wrap;html=1;fillColor=#f5f5f5;fontColor=#333333;strokeColor=#666666;" vertex="1" parent="1">
          <mxGeometry x="440" y="440" width="120" height="85" as="geometry" />
        </mxCell>
        <mxCell id="JYsvqv3m3Tlzd7t_K05r-31" style="edgeStyle=orthogonalEdgeStyle;rounded=0;orthogonalLoop=1;jettySize=auto;html=1;exitX=0.75;exitY=1;exitDx=0;exitDy=0;entryX=0;entryY=0.5;entryDx=0;entryDy=0;" edge="1" parent="1" source="JYsvqv3m3Tlzd7t_K05r-11" target="JYsvqv3m3Tlzd7t_K05r-12">
          <mxGeometry relative="1" as="geometry" />
        </mxCell>
        <mxCell id="JYsvqv3m3Tlzd7t_K05r-33" style="edgeStyle=orthogonalEdgeStyle;rounded=0;orthogonalLoop=1;jettySize=auto;html=1;exitX=0.25;exitY=1;exitDx=0;exitDy=0;entryX=0;entryY=0.5;entryDx=0;entryDy=0;" edge="1" parent="1" source="JYsvqv3m3Tlzd7t_K05r-11" target="JYsvqv3m3Tlzd7t_K05r-14">
          <mxGeometry relative="1" as="geometry" />
        </mxCell>
        <mxCell id="JYsvqv3m3Tlzd7t_K05r-11" value="&lt;font style=&quot;font-size: 18px;&quot;&gt;&lt;b&gt;Geospatial and Statistical&amp;nbsp; Data Analysis&lt;/b&gt;&lt;/font&gt;" style="rounded=1;whiteSpace=wrap;html=1;rotation=-90;fillColor=#f5f5f5;fontColor=#333333;strokeColor=#666666;" vertex="1" parent="1">
          <mxGeometry x="535" y="297.51" width="292.5" height="76.25" as="geometry" />
        </mxCell>
        <mxCell id="JYsvqv3m3Tlzd7t_K05r-36" style="edgeStyle=orthogonalEdgeStyle;rounded=0;orthogonalLoop=1;jettySize=auto;html=1;exitX=1;exitY=0.5;exitDx=0;exitDy=0;entryX=1;entryY=0.5;entryDx=0;entryDy=0;" edge="1" parent="1" source="JYsvqv3m3Tlzd7t_K05r-12" target="JYsvqv3m3Tlzd7t_K05r-16">
          <mxGeometry relative="1" as="geometry" />
        </mxCell>
        <mxCell id="JYsvqv3m3Tlzd7t_K05r-12" value="&lt;span style=&quot;font-size: 18px;&quot;&gt;&lt;b&gt;Soil Texture Map&lt;/b&gt;&lt;/span&gt;" style="rounded=1;whiteSpace=wrap;html=1;fillColor=#f5f5f5;fontColor=#333333;strokeColor=#666666;" vertex="1" parent="1">
          <mxGeometry x="800" y="120" width="120" height="70" as="geometry" />
        </mxCell>
        <mxCell id="JYsvqv3m3Tlzd7t_K05r-37" style="edgeStyle=orthogonalEdgeStyle;rounded=0;orthogonalLoop=1;jettySize=auto;html=1;exitX=1;exitY=0.5;exitDx=0;exitDy=0;" edge="1" parent="1" source="JYsvqv3m3Tlzd7t_K05r-13">
          <mxGeometry relative="1" as="geometry">
            <mxPoint x="960" y="303" as="targetPoint" />
          </mxGeometry>
        </mxCell>
        <mxCell id="JYsvqv3m3Tlzd7t_K05r-13" value="&lt;span style=&quot;font-size: 18px;&quot;&gt;&lt;b&gt;Soil Organic Carbon Map&lt;/b&gt;&lt;/span&gt;" style="rounded=1;whiteSpace=wrap;html=1;fillColor=#f5f5f5;fontColor=#333333;strokeColor=#666666;" vertex="1" parent="1">
          <mxGeometry x="800" y="272.5" width="110" height="61.25" as="geometry" />
        </mxCell>
        <mxCell id="JYsvqv3m3Tlzd7t_K05r-14" value="&lt;span style=&quot;font-size: 18px;&quot;&gt;&lt;b&gt;Soil Permeability Map&lt;/b&gt;&lt;/span&gt;" style="rounded=1;whiteSpace=wrap;html=1;fillColor=#f5f5f5;fontColor=#333333;strokeColor=#666666;" vertex="1" parent="1">
          <mxGeometry x="800" y="455" width="130" height="70" as="geometry" />
        </mxCell>
        <mxCell id="JYsvqv3m3Tlzd7t_K05r-30" style="edgeStyle=orthogonalEdgeStyle;rounded=0;orthogonalLoop=1;jettySize=auto;html=1;exitX=0.5;exitY=0;exitDx=0;exitDy=0;entryX=1;entryY=0.75;entryDx=0;entryDy=0;" edge="1" parent="1" source="JYsvqv3m3Tlzd7t_K05r-15" target="JYsvqv3m3Tlzd7t_K05r-11">
          <mxGeometry relative="1" as="geometry">
            <mxPoint x="460" y="105" as="targetPoint" />
          </mxGeometry>
        </mxCell>
        <mxCell id="JYsvqv3m3Tlzd7t_K05r-15" value="&lt;span style=&quot;font-size: 18px;&quot;&gt;&lt;b&gt;Climate Data (1984 -2024)&lt;/b&gt;&lt;/span&gt;" style="rounded=1;whiteSpace=wrap;html=1;fillColor=#f5f5f5;fontColor=#333333;strokeColor=#666666;" vertex="1" parent="1">
          <mxGeometry x="120" y="105" width="150" height="100" as="geometry" />
        </mxCell>
        <mxCell id="JYsvqv3m3Tlzd7t_K05r-16" value="&lt;font style=&quot;font-size: 18px;&quot;&gt;&lt;b&gt;Physicochemical and climate variability implications on soil erosion susceptibility&lt;/b&gt;&lt;/font&gt;" style="rounded=1;whiteSpace=wrap;html=1;rotation=-90;fillColor=#f5f5f5;fontColor=#333333;strokeColor=#666666;" vertex="1" parent="1">
          <mxGeometry x="790" y="305.63" width="417.5" height="73.75" as="geometry" />
        </mxCell>
        <mxCell id="JYsvqv3m3Tlzd7t_K05r-20" style="edgeStyle=orthogonalEdgeStyle;rounded=0;orthogonalLoop=1;jettySize=auto;html=1;exitX=0.5;exitY=1;exitDx=0;exitDy=0;" edge="1" parent="1" source="JYsvqv3m3Tlzd7t_K05r-2">
          <mxGeometry relative="1" as="geometry">
            <mxPoint x="310" y="472" as="targetPoint" />
          </mxGeometry>
        </mxCell>
        <mxCell id="JYsvqv3m3Tlzd7t_K05r-26" value="" style="endArrow=classic;html=1;rounded=0;" edge="1" parent="1">
          <mxGeometry width="50" height="50" relative="1" as="geometry">
            <mxPoint x="400" y="482" as="sourcePoint" />
            <mxPoint x="440" y="482" as="targetPoint" />
          </mxGeometry>
        </mxCell>
        <mxCell id="JYsvqv3m3Tlzd7t_K05r-32" style="edgeStyle=orthogonalEdgeStyle;rounded=0;orthogonalLoop=1;jettySize=auto;html=1;exitX=0.75;exitY=1;exitDx=0;exitDy=0;" edge="1" parent="1" source="JYsvqv3m3Tlzd7t_K05r-11">
          <mxGeometry relative="1" as="geometry">
            <mxPoint x="800" y="310" as="targetPoint" />
          </mxGeometry>
        </mxCell>
        <mxCell id="JYsvqv3m3Tlzd7t_K05r-34" value="&lt;span style=&quot;font-size: 18px;&quot;&gt;&lt;b&gt;Climate data Map&lt;/b&gt;&lt;/span&gt;" style="rounded=1;whiteSpace=wrap;html=1;fillColor=#f5f5f5;fontColor=#333333;strokeColor=#666666;" vertex="1" parent="1">
          <mxGeometry x="800" y="365.63" width="110" height="61.25" as="geometry" />
        </mxCell>
        <mxCell id="JYsvqv3m3Tlzd7t_K05r-35" style="edgeStyle=orthogonalEdgeStyle;rounded=0;orthogonalLoop=1;jettySize=auto;html=1;exitX=0.75;exitY=1;exitDx=0;exitDy=0;" edge="1" parent="1" source="JYsvqv3m3Tlzd7t_K05r-11">
          <mxGeometry relative="1" as="geometry">
            <mxPoint x="800" y="390" as="targetPoint" />
          </mxGeometry>
        </mxCell>
        <mxCell id="JYsvqv3m3Tlzd7t_K05r-38" style="edgeStyle=orthogonalEdgeStyle;rounded=0;orthogonalLoop=1;jettySize=auto;html=1;exitX=1;exitY=0.5;exitDx=0;exitDy=0;entryX=0.372;entryY=0.026;entryDx=0;entryDy=0;entryPerimeter=0;" edge="1" parent="1" source="JYsvqv3m3Tlzd7t_K05r-34" target="JYsvqv3m3Tlzd7t_K05r-16">
          <mxGeometry relative="1" as="geometry" />
        </mxCell>
        <mxCell id="JYsvqv3m3Tlzd7t_K05r-39" style="edgeStyle=orthogonalEdgeStyle;rounded=0;orthogonalLoop=1;jettySize=auto;html=1;exitX=1;exitY=0.5;exitDx=0;exitDy=0;entryX=0.151;entryY=0.041;entryDx=0;entryDy=0;entryPerimeter=0;" edge="1" parent="1" source="JYsvqv3m3Tlzd7t_K05r-14" target="JYsvqv3m3Tlzd7t_K05r-16">
          <mxGeometry relative="1" as="geometry" />
        </mxCell>
      </root>
    </mxGraphModel>
  </diagram>
</mxfile>
